<svg width="287" height="96" viewBox="0 0 287 96" fill="none" xmlns="http://www.w3.org/2000/svg">
<path fill-rule="evenodd" clip-rule="evenodd" d="M268.059 59.947C267.877 59.9908 267.562 60.1459 267.359 60.2918C266.32 61.0382 266.252 62.5643 267.221 63.3937C268.019 64.0774 269.201 64.0463 269.925 63.3222C270.893 62.3535 270.641 60.6924 269.44 60.1259C268.981 59.9096 268.482 59.8451 268.059 59.947ZM222.497 60.6201C222.308 60.7084 222.068 60.9106 221.964 61.0694C221.651 61.5458 220.478 64.0936 220.478 64.2965C220.478 64.6148 220.789 64.7527 221.506 64.7521C222.289 64.7516 222.709 64.6445 223.047 64.3597C223.292 64.1535 224.748 61.9539 225.113 61.2388C225.468 60.5429 225.332 60.4549 223.899 60.4575C223.048 60.459 222.774 60.4908 222.497 60.6201ZM125.683 64.6263C125.896 63.016 126.679 62.1817 128.221 61.9229C129.002 61.7919 134.994 61.8192 135.971 61.9582C138.227 62.2788 139.614 63.1436 140.386 64.7096C140.95 65.8549 141.026 66.2735 141.026 68.2331C141.026 69.7728 141.006 70.0233 140.828 70.6365C140.548 71.6034 140.168 72.2776 139.566 72.8739C138.955 73.4785 138.372 73.813 137.4 74.1159L136.696 74.3355L139.011 77.9017C140.284 79.8631 141.369 81.5977 141.422 81.7565C141.507 82.0106 141.497 82.0671 141.334 82.2292C141.164 82.4 141.063 82.4132 139.928 82.4131C138.546 82.4129 138.298 82.335 137.705 81.7115C137.453 81.4468 135.526 78.4999 133.346 75.0439L133.034 74.5497H130.993H128.952L128.952 78.1377C128.951 81.5398 128.943 81.7398 128.784 81.9997C128.574 82.3441 128.201 82.455 127.252 82.4556C126.433 82.4562 126.029 82.3218 125.8 81.973C125.651 81.7458 125.642 81.3066 125.618 73.5222C125.601 68.1219 125.624 65.0768 125.683 64.6263ZM150.315 66.4806C147.564 66.8818 145.867 68.3119 145.176 70.8113C144.997 71.4597 144.986 71.6723 144.983 74.5497C144.979 78.036 145.027 78.4055 145.646 79.6448C146.056 80.4665 146.854 81.3242 147.603 81.7479C148.933 82.5012 150.85 82.8474 153.273 82.7722C154.801 82.7247 155.667 82.6068 156.868 82.283C157.964 81.9871 158.171 81.7001 158.164 80.4795C158.161 79.7708 158.02 79.3607 157.723 79.1944C157.508 79.0744 157.395 79.0829 156.348 79.2966C154.745 79.6235 153.509 79.7368 152.199 79.677C150.424 79.5959 149.452 79.2725 148.842 78.5601C148.451 78.1027 148.281 77.5734 148.226 76.6379L148.179 75.847L152.939 75.8214L153.251 75.8198C157.343 75.7979 157.982 75.7945 158.244 75.4786C158.292 75.4202 158.328 75.3511 158.37 75.2692L158.37 75.2692L158.387 75.2354C158.686 74.6572 158.772 72.7181 158.558 71.3967C158.194 69.1488 157.063 67.6517 155.163 66.9C154.018 66.4467 151.839 66.2583 150.315 66.4806ZM163.072 69.3257C163.877 67.7191 165.506 66.7346 167.84 66.4434C167.981 66.4257 168.619 66.4056 169.258 66.3989C173.127 66.3576 175.262 67.653 175.981 70.4784C176.173 71.229 176.176 71.3234 176.176 76.4404L176.176 76.888C176.176 81.3029 176.176 81.9764 175.857 82.2043C175.8 82.2453 175.732 82.2719 175.653 82.3032L175.607 82.3211C175.174 82.4947 173.918 82.5026 173.515 82.3345C173.489 82.3233 173.463 82.3132 173.439 82.3034L173.439 82.3034C173.355 82.2699 173.285 82.2418 173.225 82.1985C172.911 81.9692 172.906 81.3152 172.873 77.1977L172.867 76.4873L172.824 71.241L172.62 70.8305C172.364 70.315 171.855 69.8739 171.286 69.6756C170.93 69.551 170.565 69.5222 169.343 69.5222C167.489 69.5222 167.03 69.6376 166.406 70.2603L166.364 70.3028C166.25 70.4158 166.156 70.5092 166.078 70.6146C165.704 71.1194 165.697 71.8961 165.656 76.3959V76.396L165.653 76.7496L165.645 77.5669V77.567C165.611 81.4447 165.605 82.0285 165.327 82.2244C165.278 82.2591 165.22 82.2816 165.152 82.3082C165.126 82.3181 165.099 82.3286 165.071 82.3406C164.745 82.4769 163.51 82.4938 163.057 82.3682C162.878 82.3184 162.676 82.1804 162.585 82.0463C162.434 81.8242 162.425 81.531 162.425 76.5693C162.425 70.661 162.43 70.6047 163.072 69.3257ZM185.457 66.4808C182.792 66.8647 181.001 68.2372 180.306 70.4267C179.951 71.5468 179.894 72.2587 179.935 75.0774C179.978 78.0098 180.047 78.4541 180.658 79.7061C181.047 80.5024 182.023 81.5124 182.795 81.9167C183.873 82.481 185.478 82.8008 187.219 82.7979C188.842 82.7954 190.036 82.5495 191.248 81.9682C192.733 81.2564 193.67 80.065 194.161 78.2657C194.386 77.4389 194.389 77.3936 194.392 74.5497C194.394 71.8318 194.383 71.6277 194.198 70.9007C193.889 69.6827 193.488 68.9418 192.728 68.1809C191.756 67.2087 190.603 66.7017 188.844 66.4734C188.076 66.3738 186.17 66.378 185.457 66.4808ZM216.65 67.6263C216.764 66.8614 217.162 66.6617 218.943 66.475C219.889 66.3759 221.964 66.3752 222.841 66.4737C225.257 66.7451 226.944 67.6873 227.637 69.1524C228.1 70.1305 228.14 70.6275 228.106 74.9895C228.078 78.5379 228.058 79.0275 227.92 79.4483C227.264 81.4599 225.878 82.3894 223.044 82.7198C221.995 82.8421 219.871 82.7766 218.974 82.5942C216.256 82.042 214.945 80.5138 214.949 77.9014C214.951 76.3678 215.312 75.4103 216.198 74.5901C217.431 73.4485 219.037 73.0887 222.899 73.0887H224.86V72.1161C224.86 70.4739 224.533 69.8576 223.454 69.4716C222.722 69.2095 220.233 69.1418 218.701 69.3424C217.312 69.5242 217.017 69.5193 216.829 69.3115C216.65 69.1137 216.557 68.2426 216.65 67.6263ZM254.197 66.5204C252.037 66.8833 250.535 67.9457 249.747 69.6677C249.164 70.9421 249.138 71.1481 249.138 74.6356C249.138 77.6586 249.146 77.7974 249.337 78.46C249.891 80.3739 250.956 81.54 252.74 82.1856C253.774 82.56 254.713 82.7184 256.228 82.7746C257.82 82.8336 259.269 82.7073 260.525 82.3999C262.148 82.003 262.28 81.8565 262.274 80.4687C262.27 79.5388 262.154 79.2358 261.766 79.1384C261.646 79.1082 261.058 79.1832 260.456 79.3057C257.672 79.8722 255.043 79.8134 253.756 79.1557C252.842 78.6886 252.441 77.9688 252.379 76.6808L252.339 75.847L257.098 75.8214L257.405 75.8198C261.503 75.7979 262.141 75.7945 262.403 75.4789C262.451 75.4207 262.486 75.3519 262.528 75.2703L262.545 75.2375C262.731 74.8778 262.876 73.2811 262.81 72.3191C262.574 68.8884 260.869 66.9653 257.63 66.4783C256.803 66.3541 255.06 66.3754 254.197 66.5204ZM274.363 70.7718C274.367 68.2786 275.627 66.9338 278.355 66.5098C280.284 66.2099 283.468 66.4948 284.71 67.0784C285.315 67.3627 285.405 67.5632 285.405 68.6237C285.405 69.7673 285.293 69.9949 284.731 69.9949C284.528 69.9949 284.171 69.9385 283.938 69.8696C282.688 69.5002 280.384 69.3056 279.22 69.4712C278.024 69.6414 277.59 69.9917 277.608 70.7728C277.62 71.3189 277.863 71.6669 278.458 71.9907C278.69 72.1169 279.884 72.6501 281.111 73.1755C283.526 74.2096 284.239 74.5871 284.903 75.1839C285.917 76.096 286.362 77.8071 286.013 79.4542C285.655 81.1436 284.548 82.1102 282.445 82.5705C281.743 82.7241 281.342 82.7497 279.69 82.7466C277.64 82.7428 276.51 82.6056 275.212 82.2031C274.235 81.9002 274.052 81.5578 274.116 80.1479C274.158 79.2322 274.294 79.0684 274.963 79.1316C275.223 79.1561 275.9 79.2754 276.467 79.3966C278.491 79.8292 281.28 79.8805 282.187 79.5015C283.023 79.1522 283.2 78.1441 282.54 77.487C282.173 77.1208 281.69 76.8758 278.874 75.624C276.548 74.5902 276.043 74.3092 275.449 73.7182C274.71 72.982 274.361 72.0338 274.363 70.7718ZM198.034 66.8217C197.704 66.9492 197.58 67.3097 197.691 67.8197C198.063 69.5365 200.434 79.1336 200.638 79.7491C201.077 81.0754 201.681 81.9537 202.405 82.3182C202.987 82.6109 203.813 82.7407 205.094 82.7407C206.94 82.7407 207.779 82.5006 208.507 81.7643C208.892 81.3747 209.354 80.5134 209.64 79.6555C209.935 78.7668 212.571 67.7674 212.571 67.4237C212.571 66.8817 212.373 66.7772 211.281 66.7433C210.491 66.7187 210.293 66.7407 209.954 66.8903C209.918 66.9064 209.884 66.9195 209.853 66.9318C209.807 66.9499 209.765 66.9661 209.726 66.9872C209.377 67.1766 209.239 67.7554 207.86 73.5327L207.525 74.9364C206.451 79.4318 206.392 79.6061 205.879 79.8066C205.491 79.9585 204.622 79.9191 204.307 79.7353C204.276 79.7171 204.247 79.7014 204.22 79.6867L204.22 79.6866C204.177 79.6633 204.138 79.6423 204.102 79.6176C203.78 79.3977 203.657 78.8855 202.443 73.8112L202.167 72.6613C201.505 69.8975 200.896 67.5231 200.815 67.385C200.512 66.8676 200.279 66.775 199.223 66.7534C198.695 66.7426 198.16 66.7733 198.034 66.8217ZM231.392 67.8651C231.265 67.3124 231.378 66.955 231.723 66.8217C231.848 66.7733 232.378 66.7424 232.9 66.753C234.369 66.7828 234.475 66.8987 234.992 69.0438C235.181 69.8269 235.784 72.3432 236.332 74.6356C236.892 76.9809 237.412 78.9717 237.522 79.1878C237.794 79.7271 238.132 79.9028 238.887 79.8981C239.584 79.8937 239.849 79.7538 240.094 79.2626C240.177 79.0958 240.848 76.4492 241.585 73.3814C242.322 70.3135 242.997 67.6376 243.085 67.4349C243.331 66.8675 243.771 66.706 244.969 66.7433C246.067 66.7774 246.259 66.8805 246.259 67.4337C246.259 67.6173 245.948 69.0519 245.568 70.6216C245.188 72.1912 244.625 74.5196 244.316 75.7958C243.503 79.157 243.282 79.9257 242.91 80.6944C242.147 82.2699 241.198 82.7407 238.783 82.7407C236.136 82.7407 235.231 82.189 234.438 80.0919C234.266 79.635 232.159 71.1795 231.392 67.8651ZM266.885 73.8982V73.8985L266.885 74.6114C266.885 81.1305 266.896 81.6616 267.036 81.9405C267.138 82.1454 267.282 82.274 267.487 82.3439C267.921 82.492 269.231 82.4836 269.598 82.3303C269.612 82.3243 269.627 82.3186 269.64 82.3131L269.656 82.3066C269.717 82.2823 269.77 82.261 269.817 82.2298C270.151 82.0073 270.151 81.283 270.151 75.3859V75.3855L270.151 74.5927L270.151 73.7998V73.7994C270.151 67.9024 270.151 67.1781 269.817 66.9555C269.77 66.9243 269.717 66.903 269.656 66.8787C269.638 66.8712 269.618 66.8634 269.598 66.855C269.2 66.6886 267.805 66.691 267.419 66.8587C267.401 66.8663 267.385 66.8733 267.368 66.8802C267.311 66.9043 267.26 66.9256 267.215 66.9557C266.884 67.1795 266.884 67.8932 266.885 73.8982ZM137.467 66.4937C137.216 65.9284 136.767 65.5184 136.117 65.2606C135.629 65.0672 135.511 65.0592 132.69 65.029L129.768 64.9977L129.467 65.2005C128.988 65.5237 128.962 65.7003 128.956 68.689L128.951 71.3792L132.325 71.3526C135.587 71.3269 135.713 71.3197 136.175 71.1335C136.881 70.8481 137.338 70.3523 137.557 69.6342C137.809 68.8015 137.763 67.1602 137.467 66.4937ZM155.591 72.5088C155.588 70.8873 154.979 69.9399 153.636 69.4677C152.977 69.2358 151.31 69.1713 150.536 69.3476C149.796 69.5163 149.166 69.8875 148.794 70.3753C148.386 70.9115 148.284 71.2467 148.227 72.2509L148.179 73.0888H151.886H155.593L155.591 72.5088ZM257.292 69.3499C258.922 69.6951 259.623 70.5424 259.729 72.2939L259.777 73.0888H256.058H252.338L252.378 72.208C252.438 70.8898 252.846 70.1453 253.763 69.6807C254.631 69.2406 256.118 69.1012 257.292 69.3499ZM190.939 71.499C190.602 70.4277 190.04 69.9104 188.891 69.6111C188.179 69.4254 186.163 69.4394 185.414 69.6353C184.406 69.8988 183.841 70.3579 183.492 71.1982C183.24 71.8035 183.161 72.8468 183.199 75.0365C183.233 76.9213 183.259 77.2367 183.421 77.7332C183.898 79.1906 185.246 79.8067 187.685 79.6814C189.028 79.6123 189.678 79.3956 190.27 78.8194C190.656 78.4431 190.758 78.2744 190.928 77.7296C191.119 77.1162 191.129 76.9643 191.129 74.5928C191.129 72.2619 191.117 72.0616 190.939 71.499ZM224.86 76.8116C224.86 79.1844 224.414 79.7346 222.3 79.9716C220.81 80.1386 219.46 79.9125 218.854 79.3942C218.379 78.9868 218.216 78.5159 218.255 77.6566C218.282 77.062 218.321 76.9201 218.544 76.5978C218.898 76.086 219.548 75.7697 220.439 75.6759C220.815 75.6364 221.963 75.5988 222.991 75.5925L224.86 75.5811V76.8116Z" fill="#1CA74B"/>
<path fill-rule="evenodd" clip-rule="evenodd" d="M186.437 17.957C186.436 16.2537 187.542 14.8712 189.235 14.4601C189.786 14.3261 190.089 14.3191 190.666 14.4266C192.548 14.7778 193.88 16.6303 193.582 18.481C193.262 20.4704 191.391 21.8233 189.425 21.4863C187.657 21.183 186.438 19.7436 186.437 17.957ZM229.065 14.9035C229.371 14.7113 230.038 14.4679 230.446 14.3996C231.902 14.1558 233.472 15.003 234.178 16.4131C234.858 17.7722 234.588 19.3861 233.497 20.4899C231.757 22.2503 228.741 21.7231 227.687 19.4744C227.413 18.8907 227.395 18.796 227.395 17.9497C227.395 17.12 227.417 17.0024 227.66 16.4885C227.934 15.9103 228.527 15.2419 229.065 14.9035ZM140.252 17.442C138.179 17.6886 136.658 18.4943 135.645 19.8833C134.881 20.9309 133.942 23.0592 133.236 25.3405C133.04 25.9723 129.919 37.2199 129.337 39.3916C129.274 39.628 128.636 41.9483 127.919 44.548C127.202 47.1477 126.542 49.5454 126.451 49.8763C125.901 51.877 125.6 53.148 125.6 53.4661C125.601 53.9435 125.863 54.3628 126.268 54.5336C126.694 54.7133 128.69 54.7871 129.539 54.6547C130.668 54.4783 131.146 54.0934 131.591 53.0033C131.733 52.6542 132.329 50.5993 132.914 48.4368L133.979 44.505H141.903H149.828L149.924 44.8703C150.353 46.5037 151.924 52.229 152.034 52.5568C152.257 53.2227 152.682 53.9586 152.972 54.1796C153.533 54.6075 153.886 54.6764 155.55 54.6829C156.828 54.6879 157.164 54.6628 157.486 54.5385C158.053 54.3198 158.207 54.0174 158.148 53.2381C158.115 52.8035 157.101 48.9938 154.647 40.0792C152.747 33.1782 151.098 27.1839 150.984 26.7585C150.869 26.3331 150.546 25.3018 150.265 24.4669C148.566 19.4104 147.098 17.8821 143.518 17.4434C142.643 17.3362 141.148 17.3355 140.252 17.442ZM165.96 20.6869C166.111 20.0074 166.463 19.5502 166.98 19.3633C167.237 19.2701 167.671 19.2443 168.714 19.2604C170.231 19.2837 170.339 19.3162 170.756 19.8733C170.926 20.1015 170.934 20.2333 170.958 23.3215L170.984 26.5326L175.427 26.5654C178.614 26.589 179.961 26.628 180.19 26.7032C180.694 26.8685 181.012 27.1906 181.158 27.683C181.314 28.2078 181.337 30.1762 181.195 30.8382C181.08 31.3758 180.691 31.815 180.213 31.9477C179.983 32.0116 178.409 32.043 175.419 32.0433L170.968 32.0438L171 39.1123L171.003 39.7109C171.029 45.584 171.033 46.4321 171.321 47.1691C171.37 47.2935 171.427 47.4148 171.493 47.5564L171.533 47.6418C171.895 48.4194 172.302 48.8784 172.924 49.209C173.735 49.6395 174.314 49.7475 175.801 49.7456C177.181 49.7439 178.347 49.6197 179.773 49.3225C181.304 49.003 181.852 49.1189 182.122 49.8196C182.349 50.4076 182.348 52.873 182.12 53.4633C181.91 54.0061 181.425 54.409 180.704 54.6389C179.096 55.1513 175.014 55.4132 173.075 55.1281C170.828 54.7978 169.191 54.0717 167.876 52.8231C167.257 52.2352 166.961 51.8426 166.478 50.968C165.782 49.7078 165.369 48.1432 165.217 46.1985C165.173 45.6216 165.135 42.2008 165.134 38.5967L165.132 32.0438H163.225C161.481 32.0438 161.288 32.0289 160.956 31.8681C160.426 31.6114 160.296 31.2789 160.25 30.0642C160.2 28.7184 160.323 28.1452 160.747 27.74C161.129 27.3755 161.481 27.268 163.542 26.8858C164.346 26.7369 165.042 26.6038 165.089 26.5903C165.136 26.5766 165.323 25.3714 165.504 23.9119C165.685 22.4525 165.89 21.0013 165.96 20.6869ZM207.242 25.9947C206.061 26.0782 203.961 26.3097 203.377 26.4208C202.555 26.5769 201.926 26.8878 201.674 27.2617C201.4 27.667 201.282 28.5395 201.337 29.7446C201.39 30.9171 201.512 31.219 202.041 31.4789C202.406 31.6583 202.542 31.6501 204.664 31.321C207.336 30.9067 211.073 30.9075 212.871 31.3229C214.111 31.6093 215.177 32.2993 215.576 33.0751C215.938 33.7765 216.002 34.2216 216.012 36.1099L216.022 37.9307L212.04 37.9829C207.867 38.0378 207.468 38.0595 205.867 38.3201C203.339 38.7318 201.37 39.6614 200.113 41.0366C199.294 41.9327 198.78 43.0222 198.475 44.505C198.315 45.282 198.295 45.6104 198.327 46.8684C198.367 48.4535 198.494 49.1783 198.91 50.2008C200.015 52.9166 202.448 54.5011 206.486 55.1348C207.861 55.3507 211.988 55.3488 213.473 55.1317C216.439 54.6978 218.277 53.9224 219.712 52.4998C220.808 51.4129 221.419 50.1442 221.719 48.3294C221.845 47.5674 221.858 46.6663 221.832 40.3799C221.803 33.4463 221.798 33.2748 221.618 32.6024C220.696 29.1689 218.418 27.2576 214.246 26.4171C213.679 26.3028 212.848 26.1673 212.399 26.1159C211.548 26.0185 208.064 25.9366 207.242 25.9947ZM244.884 26.3311C245.592 26.2254 246.115 26.1726 248.236 25.9924C248.927 25.9336 252.467 26.0199 253.306 26.1159C258.397 26.6987 261.272 28.5691 262.355 32.0029C262.789 33.3781 262.802 33.6505 262.802 40.8956C262.802 46.9582 262.787 47.7223 262.652 48.4361C262.308 50.2561 261.758 51.35 260.611 52.4981C259.624 53.4857 258.828 53.9601 257.315 54.4625C255.332 55.1207 253.006 55.3909 250.043 55.3069C248.134 55.2527 246.979 55.1131 245.64 54.7746C241.19 53.6496 239.042 50.7238 239.238 46.052C239.426 41.5513 241.957 39.0367 247.074 38.2682C248.396 38.0697 250.563 37.9771 253.929 37.9753L257.001 37.9736L257 36.4912C256.998 34.5847 256.909 33.9691 256.523 33.1813C256.285 32.695 256.119 32.4835 255.771 32.2241C254.562 31.3216 253.15 31.0171 250.16 31.014C248.536 31.0124 246.926 31.121 245.614 31.3207C243.447 31.6509 243.314 31.6587 242.946 31.4789C242.385 31.2051 242.276 30.869 242.269 29.3839C242.261 27.8646 242.361 27.4423 242.827 27.0211C243.206 26.679 243.73 26.5031 244.884 26.3311ZM188.808 26.6207C187.876 26.7391 187.412 27.0731 187.197 27.7796C187.038 28.3019 187.04 52.9795 187.199 53.5034C187.351 54.0043 187.667 54.3481 188.145 54.5323C188.48 54.6617 188.804 54.6889 190.011 54.6889C191.65 54.6889 192.108 54.585 192.494 54.1263C192.513 54.1041 192.531 54.0837 192.548 54.0642C192.572 54.0372 192.594 54.0119 192.615 53.9855C192.934 53.5825 192.934 52.9264 192.933 42.265V42.2645L192.933 40.6807C192.933 30.398 192.912 28.0641 192.817 27.7489C192.675 27.2775 192.263 26.8726 191.778 26.7272C191.338 26.5953 189.521 26.5302 188.808 26.6207ZM228.032 28.5057C228.176 27.2216 228.559 26.7906 229.703 26.6282C230.345 26.5371 232.261 26.5929 232.692 26.7154C233.116 26.8359 233.422 27.0921 233.65 27.5187L233.841 27.8757L233.864 40.3799C233.88 49.2845 233.859 53.0165 233.791 53.3438C233.665 53.9511 233.259 54.4084 232.702 54.5703C232.155 54.7293 229.693 54.73 229.159 54.5712C228.686 54.4306 228.275 54.0121 228.121 53.514C228.028 53.2131 228.001 50.8591 227.977 41.2057C227.958 33.6729 227.979 28.9878 228.032 28.5057ZM144.2 24.1715C143.87 23.4757 143.392 22.9908 142.901 22.8546C142.52 22.7488 141.306 22.7446 140.963 22.848C140.16 23.0898 139.712 23.6774 139.228 25.1258C139.049 25.6597 137.474 31.3872 136.569 34.794C136.222 36.1014 135.461 38.8749 135.423 38.9759C135.386 39.0714 136.482 39.091 141.876 39.091C145.45 39.091 148.374 39.07 148.374 39.0443C148.374 39.0186 147.809 36.9206 147.12 34.3821C146.43 31.8435 145.809 29.5538 145.741 29.2939C144.818 25.8012 144.548 24.9051 144.2 24.1715ZM216.003 44.956C215.952 47.5536 215.931 47.6869 215.45 48.5079C214.724 49.7476 212.879 50.3488 209.8 50.3488C206.578 50.3488 204.879 49.5493 204.345 47.7818C204.131 47.0717 204.151 45.6486 204.385 45.0022C204.854 43.7076 205.873 42.9737 207.629 42.6646C208.147 42.5735 209.272 42.5417 212.184 42.5358L216.051 42.528L216.003 44.956ZM257.002 44.3698C257.002 47.1657 256.83 48.0258 256.108 48.8505C255.221 49.8634 253.512 50.3466 250.814 50.3478C248.03 50.349 246.431 49.8156 245.665 48.6309C245.238 47.9702 245.109 47.3421 245.158 46.1568C245.192 45.3325 245.227 45.1612 245.465 44.6716C245.612 44.3672 245.804 44.0373 245.891 43.9387C246.231 43.5526 246.877 43.1382 247.422 42.9571C248.561 42.5779 249.018 42.5441 253.113 42.536L257.002 42.5282V44.3698Z" fill="#373D45"/>
<path d="M52.8522 2.84396C55.2888 1.21772 57.7202 0.353343 60.8016 0.0178348C60.967 -0.000212571 63.3067 -0.00545489 66.0009 0.0062329C71.2776 0.0290069 71.2404 0.0263428 73.2199 0.527886C76.2731 1.3016 79.3817 3.22355 81.5193 5.65908C82.8443 7.1687 84.0512 9.20538 84.6885 11.0075C84.9344 11.7026 87.643 21.1636 102.01 71.5089C104.343 79.6861 106.299 86.6438 106.355 86.9704C106.417 87.3294 106.44 87.9583 106.412 88.5603C106.252 92.0489 103.885 94.9288 100.463 95.7979C99.403 96.0671 97.6877 96.0674 96.6913 95.7988C96.1014 95.6398 89.9902 93.0014 82.0287 89.4686C80.4025 88.747 48.9813 74.9367 47.6099 74.3408C46.7591 73.9711 46.0486 73.6582 46.031 73.6454C46.0135 73.6326 46.079 73.3207 46.1767 72.9523C47.1393 69.3223 48.9601 62.4299 49.2084 61.4755C49.2546 61.2982 49.3281 61.1532 49.3718 61.1532C49.4155 61.1532 50.4485 61.5936 51.6673 62.1317C52.8862 62.67 55.1597 63.671 56.7195 64.3563C58.2793 65.0416 64.0415 67.5749 69.5245 69.9858L81.6849 75.3327C88.814 78.4671 90.9034 79.3772 90.9188 79.3547C90.9282 79.3408 88.7378 71.6336 86.0512 62.2275L76.913 30.2324C74.2622 20.9503 72.5663 15.1546 72.412 14.8492C72.1314 14.294 71.3319 13.4853 70.7909 13.2092C69.9731 12.7921 69.7022 12.7692 65.5713 12.7692C61.3153 12.7692 61.109 12.7893 60.2335 13.2903C59.6865 13.6033 58.9189 14.4144 58.6713 14.9412C58.5708 15.1551 57.8074 17.7027 56.975 20.6025C55.3417 26.2919 53.5722 32.4577 51.0592 41.2152C50.1844 44.2639 47.1237 54.9376 44.2578 64.9346C41.3918 74.9315 38.6023 84.6577 38.0588 86.5484C36.9986 90.2368 36.7592 90.8484 35.9459 91.9455C35.0311 93.1796 33.4687 94.245 31.8829 94.7163C30.2849 95.1912 28.2487 95.0757 26.6757 94.421C25.2591 93.8312 23.8372 92.6027 22.9767 91.225C22.7578 90.8744 21.583 88.9633 20.3661 86.9781C19.1493 84.9929 17.4292 82.1891 16.5436 80.7475C15.6579 79.3058 13.3552 75.5546 11.4265 72.4113L6.91763 65.0635L4.59691 61.2821C0.500001 54.6074 0.510915 54.6265 0.194056 53.5296C0.0296533 52.9604 0.000605736 52.654 4.15828e-06 51.485C-0.000769298 49.917 0.105968 49.3749 0.646184 48.2044C1.46149 46.4375 2.64677 45.2281 4.37897 44.3952C5.56193 43.8263 6.12724 43.6936 7.562 43.648C9.5876 43.5836 8.0339 42.9746 25.9961 50.8729C28.7998 52.1058 30.5901 52.9382 30.5845 53.0062C30.5682 53.1993 27.0125 65.1466 26.954 65.2044C26.9234 65.2347 25.4289 64.6113 23.6327 63.8192C21.8366 63.027 20.3546 62.3894 20.3394 62.4024C20.3243 62.4152 20.5608 62.826 20.8651 63.3149C21.1693 63.8039 21.7849 64.8035 22.2329 65.5361C23.1945 67.1084 27.3513 73.8834 27.7617 74.5471L28.0461 75.0071L28.2191 74.4182C28.3959 73.816 29.7284 69.1724 33.1722 57.157C37.0151 43.749 38.6597 38.0145 39.7895 34.0822C41.4367 28.3496 43.986 19.4551 45.0855 15.6052C46.3052 11.3343 46.5108 10.7189 47.1671 9.3746C48.4752 6.69526 50.4076 4.47544 52.8522 2.84396Z" fill="url(#paint0_linear_1703_148)"/>
<defs>
<linearGradient id="paint0_linear_1703_148" x1="106.66" y1="0.0385534" x2="-1.18907e-09" y2="3.2899e-06" gradientUnits="userSpaceOnUse">
<stop stop-color="#4EAF48"/>
<stop offset="1" stop-color="#38A4D4"/>
</linearGradient>
</defs>
</svg>
